<svg width="169" height="89" viewBox="0 0 169 89" fill="none" xmlns="http://www.w3.org/2000/svg">
<path d="M168.855 80.1633V74.2237C168.855 70.6989 166.218 67.8694 162.999 67.8694C161.777 67.8694 160.529 68.425 159.586 69.2571L159.03 68.2014H156.201V80.1633H159.697V74.2237C159.697 72.5026 160.918 70.9767 162.583 70.9767C164.249 70.9767 165.469 72.5026 165.469 74.2237V80.1633H168.855ZM154.561 75.2794C154.645 74.8904 154.672 74.5286 154.672 74.1396C154.672 70.6163 151.814 67.7853 148.316 67.7853C144.819 67.7853 141.961 70.6163 141.961 74.1396C141.961 77.6373 144.819 80.4967 148.316 80.4967C150.231 80.4967 151.979 79.6362 153.118 78.277L150.508 76.5274C149.955 77.0817 149.204 77.4165 148.455 77.4165C147.651 77.4165 146.9 77.0817 146.319 76.4448C146.013 76.11 145.792 75.7225 145.625 75.2794H154.561ZM151.314 73.1694H145.569C145.736 72.6707 145.985 72.1977 146.319 71.8102C146.9 71.199 147.651 70.8656 148.455 70.8656C149.232 70.8656 150.009 71.199 150.565 71.8102C150.925 72.1977 151.174 72.6707 151.314 73.1694ZM137.714 71.4497H140.489V68.2014H137.714V63.7619H134.189V68.2014H131.691V71.4497H134.189V80.1633H137.714V71.4497ZM124.226 71.5324C124.391 70.2558 125.974 70.1176 128.305 71.7817L129.915 69.2571C128.305 68.2854 127.195 67.8409 125.142 67.8409C122.867 67.8409 120.895 69.2842 120.895 71.4768C120.895 73.7792 122.505 74.5015 124.835 75.2224C125.725 75.5016 126.585 75.778 126.585 76.6671C126.585 78.1644 123.921 78.0818 122.173 76.0844L119.952 78.3326C121.423 79.8029 123.476 80.4967 125.64 80.4967C128.082 80.4967 130.053 78.6645 130.053 76.7497C130.053 74.6952 128.471 73.5583 126.779 73.0582C125.391 72.5867 124.088 72.42 124.226 71.5324ZM118.119 83.4373V68.2014H114.512V83.4373C114.512 84.1312 114.372 85.4647 113.151 85.4647H112.208V88.8499H113.485C116.149 88.8499 118.119 86.5731 118.119 83.4373ZM114.483 64.6495H118.091V60.7643H114.483V64.6495ZM112.623 74.1681C112.623 70.6718 109.682 67.8409 105.991 67.8409C102.328 67.8409 99.3857 70.6718 99.3857 74.1681C99.3857 77.6929 102.328 80.4967 105.991 80.4967C109.682 80.4967 112.623 77.6929 112.623 74.1681ZM109.127 74.1396C109.127 75.0301 108.822 75.8607 108.239 76.5004C107.629 77.1102 106.878 77.4435 106.019 77.4435C105.214 77.4435 104.409 77.1102 103.854 76.5004C103.215 75.8607 102.91 75.0571 102.91 74.1681C102.91 73.309 103.215 72.4755 103.854 71.8658C104.409 71.2261 105.214 70.8941 106.019 70.8941C106.878 70.8941 107.629 71.2261 108.239 71.8658C108.822 72.4755 109.127 73.2805 109.127 74.1396ZM97.3312 71.3101L98.6904 68.2299C98.0522 68.0076 97.3583 67.8965 96.6645 67.8965C95.083 67.8965 93.5002 68.3951 92.6126 69.562L92.1139 68.2014H89.4212V80.1633H92.8904V73.5583C93.2508 71.6435 95.3053 70.4225 97.3312 71.3101ZM84.0357 64.594H89.4198V60.7088H74.738V64.594H80.1505V80.1633H84.0357V64.594ZM32.6518 79.8356L88.7388 23.79L20.9833 19.8876L21.5731 21.6358L65.3719 30.0545L32.6518 79.8356ZM17.108 17.1052L76.5788 20.5501L0 -3.55236e-05L30.4962 60.629L31.7157 59.2441L17.108 17.1052ZM30.0331 65.4417L3.28256 12.2141L23.7757 88.8114L61.0336 32.0847L59.2228 31.7214L30.0331 65.4417Z" fill="white"/>
</svg>
