<svg height="117.99" width="923.08" viewBox="-10.8 -2.3 72 2.04" xmlns="http://www.w3.org/2000/svg"><path fill="gray" d="M17.31-5.03v-.29l-.12-.08H12.2l-.08.08v.3l.08.08h2.12l.08.08V1.2l.09.08h.37l.08-.08v-6.02l.09-.08h2.16l.12-.13zm1.12 1.46c-1.33 0-2.12.95-2.12 2.32v.2c0 1.34.67 2.5 2.2 2.5 1.33 0 1.83-.87 1.92-1.45l-.09-.09h-.37l-.08.09c-.21.58-.59.95-1.33.95-1.25 0-1.62-1.16-1.62-1.74l.08-.08h3.45l.08-.09v-.29c0-1.37-.75-2.32-2.12-2.32zm0 .5c.58 0 .97.23 1.2.55.24.33.34.73.34 1.06l-.08.09h-2.91l-.08-.09c0-.33.09-.73.33-1.06.24-.32.62-.56 1.2-.56zm3.07 1.99c0-1.33.67-2.04 1.62-2.04.96 0 1.33.58 1.46 1.17l.08.08h.42l.08-.08c-.08-.96-.87-1.62-2.04-1.62-1.24 0-2.2.78-2.2 2.49 0 1.74.96 2.49 2.2 2.49 1.17 0 1.91-.67 2.04-1.62l-.08-.08h-.38l-.08.08c-.08.58-.5 1.16-1.45 1.16-.96 0-1.66-.66-1.66-2.03zm8.3 2.32v-2.9c0-1.25-.65-1.91-1.73-1.91-.67 0-1.25.29-1.54.78h-.08v-2.49l-.13-.12h-.37l-.09.08v6.56l.09.09h.37l.08-.09v-2.61c0-1.08.5-1.75 1.54-1.75.79 0 1.25.5 1.25 1.46v2.9l.08.09h.37l.17-.09zm4.9 0v-2.9c0-1.25-.66-1.91-1.73-1.91-.67 0-1.25.29-1.54.78h-.08l-.09-.58-.08-.08h-.3l-.07.08v4.61l.08.09h.37l.09-.09v-2.61c0-1.08.5-1.75 1.53-1.75.8 0 1.25.5 1.25 1.46v2.9l.08.09h.42l.08-.09zm2.8-4.77c-1.25 0-2.21.87-2.21 2.49s.96 2.49 2.2 2.49c1.25 0 2.2-.87 2.2-2.49s-.95-2.5-2.2-2.5zm0 .45c.47 0 .87.2 1.16.56.29.35.45.86.45 1.48S38.95.09 38.66.44c-.29.36-.7.55-1.17.55-.48 0-.88-.2-1.17-.55a2.33 2.33 0 0 1-.45-1.48c0-.64.17-1.15.45-1.5.29-.35.7-.54 1.17-.54zm3.48 4.32v-6.56l-.13-.08h-.37l-.08.08v6.56l.08.09h.37zm2.87-4.77c-1.25 0-2.2.87-2.2 2.49s.95 2.49 2.2 2.49c1.24 0 2.2-.87 2.2-2.49s-.96-2.5-2.2-2.5zm0 .45c.47 0 .88.2 1.16.56.29.35.45.86.45 1.48S45.3.09 45.01.44c-.28.36-.69.55-1.16.55-.48 0-.89-.2-1.17-.55a2.32 2.32 0 0 1-.46-1.48c0-.64.17-1.15.46-1.5.28-.35.69-.54 1.16-.54zm4.73-.5c-1.33 0-2.04 1.08-2.04 2.5 0 1.45.67 2.49 2.04 2.49.87 0 1.33-.38 1.53-.79v.04c0 1.25-.29 2.2-1.45 2.2-.87 0-1.16-.37-1.24-.87l-.09-.08h-.37l-.09.08c.09.79.67 1.33 1.83 1.33 1.25 0 2.04-.79 2.04-2.7v-3.99l-.09-.08h-.29l-.08.08-.08.59h-.09c-.2-.38-.66-.8-1.53-.8zm0 .46c.48 0 .86.17 1.12.5.27.34.41.85.41 1.54 0 .68-.14 1.19-.4 1.53-.27.34-.65.5-1.13.5-.48 0-.86-.16-1.13-.5-.26-.34-.4-.85-.4-1.53 0-.67.14-1.18.4-1.52.27-.34.65-.52 1.13-.52zm3.65-1.2v-.58L52.15-5h-.38l-.12.09v.58l.08.08h.38zm0 5.56v-4.6l-.08-.09h-.38l-.12.08v4.61l.08.09h.38zm2.78-4.81c-1.33 0-2.11.95-2.11 2.32v.21c0 1.33.66 2.49 2.2 2.49 1.33 0 1.82-.87 1.9-1.45l-.08-.09h-.37l-.08.09c-.21.58-.58.95-1.33.95-1.25 0-1.62-1.16-1.62-1.74l.08-.08h3.45l.08-.09v-.29c0-1.33-.79-2.32-2.12-2.32zm0 .5c.58 0 .97.23 1.2.55.25.33.34.73.34 1.06l-.08.09h-2.91l-.08-.09c0-.33.1-.73.33-1.06.24-.32.62-.56 1.2-.56zm6.2 3.15c0-.87-.5-1.25-1.46-1.45-.96-.21-1.54-.3-1.54-.96 0-.5.37-.79 1.08-.79.87 0 1.16.38 1.16.87l.09.09h.37l.08-.09c0-.95-.79-1.32-1.74-1.32-1.08 0-1.62.58-1.62 1.24 0 .8.58 1.16 1.54 1.33.95.2 1.45.3 1.45 1.08 0 .5-.3.87-1.25.87-.87 0-1.24-.5-1.24-1.08l-.09-.08h-.37l-.08.08c0 .87.66 1.54 1.82 1.54 1.2.04 1.79-.54 1.79-1.33z"/><path fill="#007db8" d="M12.08-.1v1.38H7.76v-6.77h1.57v5.4h2.75zM-.98-5.87l-3.83 2.94a3.36 3.36 0 0 0-3.24-2.55h-2.75v6.77h2.75a3.28 3.28 0 0 0 3.24-2.55l3.83 2.95 3.83-2.95v2.55h4.32V-.09H4.32v-5.4H2.75v2.55L-.88.01l-.79-.69L.1-2.05l1.87-1.48L.89-4.4l-3.64 2.85-.78-.7L.1-5l-1.08-.88zm-8.35 1.76h1.18c.25 0 .49.06.7.16.23.1.43.25.6.43a2.23 2.23 0 0 1 .04 2.9 1.71 1.71 0 0 1-1.34.63h-1.18v-4.12z"/></svg>