<svg width="629.92" height="126.61" xmlns="http://www.w3.org/2000/svg"><defs><linearGradient x1="0" y1="0" x2="1" y2="0" gradientUnits="userSpaceOnUse" gradientTransform="scale(96.73924) rotate(90 .32 1)" spreadMethod="pad" id="a"><stop style="stop-opacity:1;stop-color:#007981" offset="0"/><stop style="stop-opacity:1;stop-color:#007981" offset=".05"/><stop style="stop-opacity:1;stop-color:#004b55" offset=".29"/><stop style="stop-opacity:1;stop-color:#004b55" offset=".39"/><stop style="stop-opacity:1;stop-color:#004b55" offset=".49"/><stop style="stop-opacity:1;stop-color:#00656b" offset=".65"/><stop style="stop-opacity:1;stop-color:#008a93" offset=".95"/><stop style="stop-opacity:1;stop-color:#008a93" offset=".95"/><stop style="stop-opacity:1;stop-color:#008a93" offset="1"/></linearGradient><clipPath clipPathUnits="userSpaceOnUse" id="b"><path d="M0 226.77h651.97V0H0Z"/></clipPath></defs><path d="M127.55 158.4a74.25 74.25 0 0 1-18.31 2.47c-15.06 0-26.62-5.66-32.08-15.68-5.74-10.52-5.62-28.28-3.39-37.11 8.8-34.8 41.84-34.45 53.36-42.17h.85c11.52 7.72 44.57 7.36 53.36 42.17 2.23 8.83 2.35 26.59-3.38 37.11-5.46 10.02-17.03 15.68-32.09 15.68-5.66 0-11.8-.8-18.32-2.47" style="fill:url(#a);stroke:none" transform="matrix(1.33333 0 0 -1.33333 -96.46 214.49)"/><g clip-path="url(#b)" transform="matrix(1.33333 0 0 -1.33333 -96.46 214.49)"><path d="M0 0c-3.1 1.47-6.67 2.64-10.6 3.93-6.9 2.27-14.73 4.84-21.36 9.6-7.31 5.26-12.05 12.48-14.48 22.09-1.92 7.61-1.83 23.34 2.7 31.64 1.94 3.58 5.01 6.41 9.1 8.41 4.5 2.2 9.99 3.31 16.32 3.31a66.8 66.8 0 0 0 16.45-2.22L0 76.28s1.9-12.92 1.9-34.22C1.9 16.51 0 0 0 0" style="fill:#fff;fill-opacity:1;fill-rule:nonzero;stroke:none" transform="translate(127.55 74.31)"/><path d="M0 0c.7 0 1.08.19 1.08.82 0 .56-.29.78-.9.78H-.4V0Zm1.09-1.96c-.2.2-.65.84-.82 1.07l-.3-.01H-.4v-1.8h-1.14v5.2H.3c1.09 0 1.96-.38 1.96-1.64 0-.73-.38-1.18-.9-1.41.46-.58.78-1.17 1.52-1.41l-.22-.81a2.2 2.2 0 0 0-1.58.8M4-.21C4 2.06 2.66 3.73.31 3.73c-2.44 0-3.73-1.68-3.73-3.92 0-2.16 1.23-4 3.65-4C2.75-4.2 4-2.48 4-.22m-8.46.02c0 3 2 4.8 4.88 4.8 3.06 0 4.62-2.08 4.62-4.83 0-2.91-1.84-4.82-4.85-4.82-2.96 0-4.65 1.97-4.65 4.85" style="fill:#00656a;fill-opacity:1;fill-rule:nonzero;stroke:none" transform="translate(182.52 156.26)"/><path d="M0 0c-1.11-.48-1.98-1.84-1.98-3.33v-27.21l-5.22-1.4-19.19 26.67h-.33l.29-3.86v-8.5l.14-7.5c0-1.16.1-1.5 1.16-1.84l4.1-1.2c0-.44-.04-2.13-.23-2.66h-14.16c-.15.72-.24 1.93-.2 2.56l2.47.72c1.5.4 2.27 2.37 2.32 4.2l.1 5.71v14.88a2.8 2.8 0 0 1-1.4 2.47l-2.95 1.3c0 .44-.05 1.8.1 2.32h10.67L-6.23-21.4h.33l-.33 5.08v12.95A3.4 3.4 0 0 1-8.03-.3l-3.04 1.3c0 .44 0 1.8.2 2.32H2.37c.1-.72.2-1.6.2-2.22Z" style="fill:#424d56;fill-opacity:1;fill-rule:nonzero;stroke:none" transform="translate(246.37 136.18)"/><path d="M0 0c-.43-.05-2.37-.24-3.91-.53-2.86-.58-4.6-1.65-4.6-3.82 0-1.4.92-2.46 2.95-2.46 2.03 0 4.79 1.16 5.56 1.45zm4.78-11.94c-3.57 0-4.44 1.36-4.63 4.16-1.4-1.45-4.55-4.2-8.41-4.2-4.06 0-6.91 1.93-6.91 6.08 0 5.75 5.12 7.83 10.1 8.56 2.12.29 4.25.53 5.07.58v3.04c0 2.7-1.2 3.87-5.46 3.87-1.74 0-4.2-.34-6.86-1.02l-1.16 4.6a26.04 26.04 0 0 0 9.33 1.73c4.05.05 10.67-.14 10.67-7.3V1.65l.34-8.84h4.06l.34-2.08c-1.55-1.4-4.6-2.66-6.48-2.66" style="fill:#424d56;fill-opacity:1;fill-rule:nonzero;stroke:none" transform="translate(264.6 116.9)"/><path d="M0 0c-1.06.24-2.42.53-4.35.53-5.03 0-6.52-4.25-6.52-10.2 0-5.31 2.17-7.73 5.99-7.73 1.79 0 3.24.49 4.69 1.16L0-8.89Zm3-22.81c-2.47 0-3.15 2.22-3.15 3.96-1.64-1.88-3.86-3.91-7.15-3.91-5.22 0-10.48 2.22-10.48 12.52 0 8.89 5.99 14.4 13.58 14.4 1.83 0 3.04-.1 4.2-.25v6.43h-4.5v3.14c2.62.53 6.24 1.02 8.51 1.02 1.89 0 2.51-.49 2.51-2.42V-8.94l.2-9.09h3.91l.48-2.41C9.04-21.6 6.57-22.81 3-22.81" style="fill:#424d56;fill-opacity:1;fill-rule:nonzero;stroke:none" transform="translate(295.52 127.77)"/><path d="M0 0c-4.1-3.04-7.35-5.22-11.65-7.15l-1.64 2.51a63.35 63.35 0 0 1 9.9 8.55zm-4.98-25.18c-.43-.05-2.37-.24-3.91-.53-2.85-.58-4.6-1.64-4.6-3.82 0-1.4.93-2.46 2.96-2.46s4.78 1.16 5.55 1.45zM-.19-37.1c-3.58 0-4.45 1.35-4.64 4.15-1.4-1.45-4.54-4.2-8.41-4.2-4.06 0-6.91 1.93-6.91 6.09 0 5.75 5.12 7.83 10.1 8.55 2.13.3 4.25.53 5.07.58v3.04c0 2.71-1.2 3.87-5.46 3.87-1.74 0-4.2-.34-6.86-1.01l-1.16 4.59a26.04 26.04 0 0 0 9.33 1.74c4.06.04 10.68-.15 10.68-7.3v-6.52l.34-8.85h4.05l.34-2.07c-1.54-1.4-4.59-2.66-6.47-2.66" style="fill:#424d56;fill-opacity:1;fill-rule:nonzero;stroke:none" transform="translate(328.38 142.07)"/><path d="M0 0c-2.17 2.42-4.16 4.54-6.96 4.54-3.33 0-6.04-2.65-6.04-9.08 0-5.95 2.56-9.19 8.02-9.19 1.98 0 4.3.44 6.33.83l1.12-3.48c-2.23-1.45-5.13-2.56-9.53-2.56-9.32 0-12.7 4.88-12.7 12.51 0 9.33 5.07 15.08 14.3 15.08 3.38 0 8.26-.92 8.26-4.59C2.8 2.56 1.93.82 0 0" style="fill:#424d56;fill-opacity:1;fill-rule:nonzero;stroke:none" transform="translate(356.27 123.71)"/><path d="M0 0c0 1.01 3.33 4.25 4.25 4.25.78 0 4.3-3.38 4.3-4.25 0-.68-3.33-4.25-4.3-4.25C3.3-4.25 0-.82 0 0m-3.29-32.28 2.95.92c.87.24 1.3 1.1 1.3 2.12l.15 7.44v9.53h-4.44v3.14c2.6.58 6.42 1.06 8.7 1.06 1.54 0 2.31-.44 2.31-2.13v-11.6l.1-7.78c.05-1.2.29-1.59.82-1.73l3.58-.88c0-.91-.05-2.02-.3-2.8H-3.08c-.15.68-.2 1.6-.2 2.7" style="fill:#424d56;fill-opacity:1;fill-rule:nonzero;stroke:none" transform="translate(365.21 140.34)"/><path d="M0 0c-.43-.05-2.37-.24-3.91-.53-2.86-.58-4.6-1.65-4.6-3.82 0-1.4.92-2.46 2.95-2.46 2.03 0 4.79 1.16 5.56 1.45zm4.78-11.94c-3.57 0-4.44 1.36-4.63 4.16-1.4-1.45-4.55-4.2-8.41-4.2-4.06 0-6.91 1.93-6.91 6.08 0 5.75 5.12 7.83 10.1 8.56 2.12.29 4.25.53 5.07.58v3.04c0 2.7-1.2 3.87-5.46 3.87-1.74 0-4.2-.34-6.86-1.02l-1.16 4.6a26.04 26.04 0 0 0 9.33 1.73c4.05.05 10.67-.14 10.67-7.3V1.65l.34-8.84h4.06l.34-2.08c-1.55-1.4-4.6-2.66-6.48-2.66" style="fill:#424d56;fill-opacity:1;fill-rule:nonzero;stroke:none" transform="translate(394.25 116.9)"/><path d="M0 0h-27.55c-.19.97-.24 2.03-.19 2.85l2.51.63c1.12.29 2.03 1.01 2.03 2.08l.15 7.92v14.4c0 1.6-.58 2.13-1.35 2.42l-3.05 1.26v1.2c.05.54.05.97.24 1.4H-.68v-7.92c-.82-.14-2.32-.2-3.04-.2-.63 3.05-1.84 3.97-3.96 3.97l-8.6.24V19.14l13.1.24v-4.45l-13.1.24v-1.74l.24-9.52 7.3.2c3.47.1 5.84 1.6 7 4.78l2.95-.63Z" style="fill:#424d56;fill-opacity:1;fill-rule:nonzero;stroke:none" transform="translate(447.65 105.35)"/><path d="M0 0c-3.43 0-8.31.77-11.55 2.56l.73 8.5h3.14c.38-4.58 4.15-7.2 8.65-7.2 3.62 0 6.33 1.17 6.33 4.3 0 2.66-3.24 3.92-7.15 5.56-4.7 1.99-10.25 4.64-10.25 10.64 0 6.13 6 10.72 12.56 10.72 3.14 0 7.64-.72 10.44-2.12v-7.54h-2.7c-.83 3.72-4.45 5.65-7.98 5.65-3.28 0-5.99-1.25-5.99-4.1 0-2.71 2.7-3.87 7.44-5.85C8.7 18.99 14.3 16.57 14.3 10.34 14.3 3.1 6.72 0 0 0" style="fill:#424d56;fill-opacity:1;fill-rule:nonzero;stroke:none" transform="translate(464.42 104.82)"/><path d="M0 0h-27.55c-.19.97-.24 2.03-.19 2.85l2.51.63c1.12.29 2.03 1.01 2.03 2.08l.15 7.92v14.4c0 1.6-.58 2.13-1.35 2.42l-3.05 1.26v1.2c.05.54.05.97.24 1.4H-.68v-7.92c-.82-.14-2.32-.2-3.04-.2-.63 3.05-1.84 3.97-3.96 3.97l-8.6.24V19.14l13.1.24v-4.45l-13.1.24v-1.74l.24-9.52 7.3.2c3.47.1 5.84 1.6 7 4.78l2.95-.63Z" style="fill:#424d56;fill-opacity:1;fill-rule:nonzero;stroke:none" transform="translate(510 105.35)"/><path d="M0 0a8.99 8.99 0 0 0-2.75-.15c-.58 3-1.89 4.79-4.55 4.93l-5.6.2v-17.01l.24-7.69c0-1.1.1-1.54 1.01-1.74l4.3-.87c0-.43-.04-2.36-.19-2.9h-17.35c-.14.73-.24 2.28-.19 2.9l3.29.92c1.1.34 1.93 2.03 1.98 3.34l.14 6.04v17l-6.04-.19c-2.37-.1-3.48-2.12-4-4.93a8.07 8.07 0 0 0-2.81.15v8.94H0Z" style="fill:#424d56;fill-opacity:1;fill-rule:nonzero;stroke:none" transform="translate(544.79 130.57)"/></g></svg>