<svg width="723.76" height="226.48" viewBox="0 0 191.49 59.92" xmlns="http://www.w3.org/2000/svg"><path d="M0 0v-6.05h8.06v-2.79H0v-8.83h-3.23V2.79H8.06V0Z" style="fill:#000;fill-opacity:1;fill-rule:nonzero;stroke:none" transform="matrix(.35278 0 0 -.35278 72.42 12.89)"/><path d="m0 0-3.64 7.1L-7.32 0Zm1.42-2.79h-10.2l-3.05-5.9h-3.39l10.83 20.47h1.62L8-8.68H4.45Z" style="fill:#000;fill-opacity:1;fill-rule:nonzero;stroke:none" transform="matrix(.35278 0 0 -.35278 80.55 16.06)"/><path d="m0 0-12.57 9.9V.64h-3.23v20.46h3.23v-9.89l9.77 9.9h4.09L-9.03 10.87 1.93 2.33Z" style="fill:#000;fill-opacity:1;fill-rule:nonzero;stroke:none" transform="matrix(.35278 0 0 -.35278 89.85 19.35)"/><path d="m0 0-.71 11.04h3.39L3.38 0c.3-4.28 2.33-6.63 6.1-6.63 3.61 0 5.6 2.35 5.9 6.63l.74 11.04h3.23L18.64 0c-.4-6.26-3.58-9.73-9.48-9.73C3.45-9.73.39-6.26 0 0" style="fill:#000;fill-opacity:1;fill-rule:nonzero;stroke:none" transform="matrix(.35278 0 0 -.35278 91.51 15.8)"/><path d="M0 0v-2.8h-11.28v20.47h3.22V0Z" style="fill:#000;fill-opacity:1;fill-rule:nonzero;stroke:none" transform="matrix(.35278 0 0 -.35278 103.96 18.14)"/><path d="M0 0h-5.93v-17.67h-3.23V0h-5.93v2.79H0Z" style="fill:#000;fill-opacity:1;fill-rule:nonzero;stroke:none" transform="matrix(.35278 0 0 -.35278 108.85 12.89)"/><path d="m0 0-3.64 7.1L-7.32 0Zm1.42-2.79h-10.2l-3.05-5.9h-3.39l10.83 20.47h1.62L8-8.68H4.45Z" style="fill:#000;fill-opacity:1;fill-rule:nonzero;stroke:none" transform="matrix(.35278 0 0 -.35278 113.67 16.06)"/><path d="m0 0-3.55 14.39L-10.35 0h-1.61l-6.77 14.1L-22.28 0h-3.38l5.7 20.46h1.61l7.36-14.91 7.25 14.91h1.61L3.55 0Z" style="fill:#000;fill-opacity:1;fill-rule:nonzero;stroke:none" transform="matrix(.35278 0 0 -.35278 128.13 19.12)"/><path d="m0 0-3.64 7.1L-7.32 0Zm1.42-2.79H-8.77l-3.06-5.9h-3.39l10.84 20.47h1.6L8-8.68H4.45Z" style="fill:#000;fill-opacity:1;fill-rule:nonzero;stroke:none" transform="matrix(.35278 0 0 -.35278 135.06 16.06)"/><path d="M0 0h-5.93v-17.67h-3.23V0h-5.93v2.79H0Z" style="fill:#000;fill-opacity:1;fill-rule:nonzero;stroke:none" transform="matrix(.35278 0 0 -.35278 142.66 12.89)"/><path d="M0 0v-2.8h-12.57v20.47h11.6v-2.79h-8.38V8.84h8.38v-2.8h-8.38V0Z" style="fill:#000;fill-opacity:1;fill-rule:nonzero;stroke:none" transform="matrix(.35278 0 0 -.35278 148.19 18.14)"/><path d="m0 0-3.55 14.39L-10.35 0h-1.61l-6.77 14.1L-22.28 0h-3.38l5.7 20.46h1.61l7.36-14.91 7.25 14.91h1.61L3.55 0Z" style="fill:#000;fill-opacity:1;fill-rule:nonzero;stroke:none" transform="matrix(.35278 0 0 -.35278 158.23 19.12)"/><path d="m0 0-3.64 7.1L-7.32 0Zm1.42-2.79H-8.77l-3.06-5.9h-3.39l10.84 20.47h1.6L8-8.68H4.45Z" style="fill:#000;fill-opacity:1;fill-rule:nonzero;stroke:none" transform="matrix(.35278 0 0 -.35278 165.16 16.06)"/><path d="M0 0h-5.93v-17.67h-3.23V0h-5.93v2.79H0Z" style="fill:#000;fill-opacity:1;fill-rule:nonzero;stroke:none" transform="matrix(.35278 0 0 -.35278 172.76 12.89)"/><path d="M128.44 136.73h1.14v7.22h-1.14z" style="fill:#000;fill-opacity:1;fill-rule:nonzero;stroke:none;stroke-width:.352778" transform="translate(45.4 -124.83)"/><path d="m0 0-12.57 9.9V.64h-3.23v20.46h3.23v-9.89l9.76 9.9h4.1L-9.03 10.87 1.93 2.33Z" style="fill:#000;fill-opacity:1;fill-rule:nonzero;stroke:none" transform="matrix(.35278 0 0 -.35278 182.38 19.35)"/><path d="M0 0v-8.1h-3.23V.1l-7.57 12.27h3.7l5.58-9.05 5.55 9.05h3.55z" style="fill:#000;fill-opacity:1;fill-rule:nonzero;stroke:none" transform="matrix(.35278 0 0 -.35278 186.89 16.27)"/><path d="M0 0h3.7L.8-6.82h-2.25Z" style="fill:#000;fill-opacity:1;fill-rule:nonzero;stroke:none" transform="matrix(.35278 0 0 -.35278 189.58 17.8)"/><path d="M0 0v-6.05h8.06v-2.79H0v-8.83h-3.23V2.79H8.06V0Z" style="fill:#000;fill-opacity:1;fill-rule:nonzero;stroke:none" transform="matrix(.35278 0 0 -.35278 72.42 24.17)"/><path d="M0 0v-8.1h-3.22V.1l-7.58 12.27h3.7l5.58-9.05 5.55 9.05h3.55z" style="fill:#000;fill-opacity:1;fill-rule:nonzero;stroke:none" transform="matrix(.35278 0 0 -.35278 79.52 27.55)"/><path d="m0 0-10.87-16.12H0v-2.8h-15.15v1.56L-4.3-1.24h-10.15v2.79H0Z" style="fill:#000;fill-opacity:1;fill-rule:nonzero;stroke:none" transform="matrix(.35278 0 0 -.35278 88.23 23.74)"/><path d="M44.18 148.02h1.14v7.22h-1.14z" style="fill:#000;fill-opacity:1;fill-rule:nonzero;stroke:none;stroke-width:.352778" transform="translate(45.4 -124.83)"/><path d="m0 0-12.57 9.9V.64h-3.23v20.46h3.23v-9.89l9.76 9.9h4.1L-9.03 10.87 1.93 2.33Z" style="fill:#000;fill-opacity:1;fill-rule:nonzero;stroke:none" transform="matrix(.35278 0 0 -.35278 98.12 30.64)"/><path d="M0 0v-8.1h-3.23V.1l-7.57 12.27h3.7l5.58-9.05 5.55 9.05h3.55z" style="fill:#000;fill-opacity:1;fill-rule:nonzero;stroke:none" transform="matrix(.35278 0 0 -.35278 102.63 27.55)"/><path d="m0 0-3.64 7.1L-7.32 0Zm1.42-2.79H-8.77l-3.06-5.9h-3.39l10.84 20.47h1.6L8-8.68H4.45Z" style="fill:#000;fill-opacity:1;fill-rule:nonzero;stroke:none" transform="matrix(.35278 0 0 -.35278 113.17 27.35)"/><path d="M73.77 148.02h1.14v7.22h-1.14z" style="fill:#000;fill-opacity:1;fill-rule:nonzero;stroke:none;stroke-width:.352778" transform="translate(45.4 -124.83)"/><path d="M0 0h1.61L15.8-14.42V0h3.22v-20.46h-1.61L3.22-6.05v-14.41H0Z" style="fill:#000;fill-opacity:1;fill-rule:nonzero;stroke:none" transform="matrix(.35278 0 0 -.35278 122.14 23.19)"/><path d="M0 0v-6.05h8.06v-2.79H0v-8.83h-3.23V2.79H8.06V0Z" style="fill:#000;fill-opacity:1;fill-rule:nonzero;stroke:none" transform="matrix(.35278 0 0 -.35278 131.8 24.17)"/><path d="M0 0c0 4.8-3.45 8.31-8.19 8.31-4.42 0-7.6-3.16-7.6-7.5 0-4.81 3.44-8.31 8.18-8.31C-3.19-7.5 0-4.34 0 0m-19.18.25c0 6.2 4.8 10.7 11.4 10.7C-1.28 10.94 3.4 6.56 3.4.54c0-6.2-4.8-10.69-11.42-10.69-6.48 0-11.15 4.37-11.15 10.39" style="fill:#000;fill-opacity:1;fill-rule:nonzero;stroke:none" transform="matrix(.35278 0 0 -.35278 142.18 26.94)"/><path d="M0 0h3.8c2.71 0 4.42 1.36 4.42 3.47 0 2.05-1.7 3.35-4.38 3.35H0Zm13.54-9.3-1.93-2.33L0-2.63v-8.38h-3.22V9.46h7.57c4.45 0 7.26-2.27 7.26-5.83 0-3.48-2.62-5.8-6.77-6.2z" style="fill:#000;fill-opacity:1;fill-rule:nonzero;stroke:none" transform="matrix(.35278 0 0 -.35278 145.88 26.53)"/><path d="m0 0-3.55 14.39L-10.35 0h-1.61l-6.77 14.1L-22.28 0h-3.38l5.7 20.46h1.61l7.36-14.91 7.25 14.91h1.61L3.55 0Z" style="fill:#000;fill-opacity:1;fill-rule:nonzero;stroke:none" transform="matrix(.35278 0 0 -.35278 160.16 30.4)"/><path d="m0 0-3.64 7.1L-7.32 0Zm1.42-2.79H-8.77l-3.06-5.9h-3.39l10.84 20.47h1.6L8-8.68H4.45Z" style="fill:#000;fill-opacity:1;fill-rule:nonzero;stroke:none" transform="matrix(.35278 0 0 -.35278 167.1 27.35)"/><path d="M0 0h-5.93v-17.67h-3.23V0h-5.93v2.79H0Z" style="fill:#000;fill-opacity:1;fill-rule:nonzero;stroke:none" transform="matrix(.35278 0 0 -.35278 174.7 24.17)"/><path d="M130.38 148.02h1.13v7.22h-1.13z" style="fill:#000;fill-opacity:1;fill-rule:nonzero;stroke:none;stroke-width:.352778" transform="translate(45.4 -124.83)"/><path d="m0 0-12.57 9.9V.64h-3.23v20.46h3.23v-9.89l9.76 9.9h4.1L-9.03 10.87 1.93 2.33Z" style="fill:#000;fill-opacity:1;fill-rule:nonzero;stroke:none" transform="matrix(.35278 0 0 -.35278 184.32 30.64)"/><path d="M0 0v-8.1h-3.22V.1l-7.58 12.27h3.7l5.58-9.05 5.55 9.05h3.55z" style="fill:#000;fill-opacity:1;fill-rule:nonzero;stroke:none" transform="matrix(.35278 0 0 -.35278 188.82 27.55)"/><path d="m0 0-.5 7.99h1.84L1.83 0c.22-3.19 1.78-5 4.5-5 2.67 0 4.21 1.81 4.4 5l.51 7.99H13L12.52 0c-.26-4.3-2.46-6.75-6.36-6.75C2.38-6.75.24-4.3 0 0" style="fill:#000;fill-opacity:1;fill-rule:nonzero;stroke:none" transform="matrix(.35278 0 0 -.35278 71.07 37.98)"/><path d="M0 0v-6.34h-1.76v6.19c0 1.32-.6 2.15-1.6 2.15C-4.67 2-5.8.75-6.57-.9v-5.44h-1.76V3.3h1.76V1.06c.9 1.5 2.25 2.44 3.7 2.44C-1.01 3.5 0 2.22 0 0" style="fill:#000;fill-opacity:1;fill-rule:nonzero;stroke:none" transform="matrix(.35278 0 0 -.35278 79.73 38.05)"/><path d="M35.5 161.72h.61v3.4h-.62zm-.12-1.26c0-.25.2-.45.45-.45s.45.2.45.45c0 .24-.2.44-.45.44a.45.45 0 0 1-.45-.44" style="fill:#000;fill-opacity:1;fill-rule:nonzero;stroke:none;stroke-width:.352778" transform="translate(45.4 -124.83)"/><path d="m0 0-5.1-9.64h-.88L-11.11 0h2.02l3.57-7 3.58 7Z" style="fill:#000;fill-opacity:1;fill-rule:nonzero;stroke:none" transform="matrix(.35278 0 0 -.35278 86.04 36.89)"/><path d="M0 0h5.72c-.15 1.65-1.3 2.93-2.88 2.93C1.32 2.93.14 1.73 0 0m7.48-1.19H.04A3.38 3.38 0 0 1 3.6-4.14c.9 0 1.82.27 2.75.77v-1.38a6.19 6.19 0 0 0-3.28-.88c-2.88 0-4.84 2.02-4.84 4.88 0 2.97 2.04 5.2 4.8 5.2 2.96 0 4.66-2.43 4.46-5.64" style="fill:#000;fill-opacity:1;fill-rule:nonzero;stroke:none" transform="matrix(.35278 0 0 -.35278 86.86 38.38)"/><path d="M0 0v-1.87c-1.21.2-2.88-.44-4.33-3.3V-9.7H-6.1v9.63h1.76V-3.5C-3.13-.53-1.56.22 0 0" style="fill:#000;fill-opacity:1;fill-rule:nonzero;stroke:none" transform="matrix(.35278 0 0 -.35278 92.48 36.86)"/><path d="m0 0-.18-1.43h-7.67v.88l5.32 7.33h-5.02l.18 1.43h7.22v-.88L-5.45 0Z" style="fill:#000;fill-opacity:1;fill-rule:nonzero;stroke:none" transform="matrix(.35278 0 0 -.35278 95.7 39.78)"/><path d="M51.2 161.72h.63v3.4h-.62Zm-.1-1.26c0-.25.2-.45.45-.45s.44.2.44.45c0 .24-.2.44-.44.44a.45.45 0 0 1-.45-.44" style="fill:#000;fill-opacity:1;fill-rule:nonzero;stroke:none;stroke-width:.352778" transform="translate(45.4 -124.83)"/><path d="M0 0c.75 0 1.36.15 1.94.42v-1.45a4.8 4.8 0 0 0-2.38-.55c-2.38 0-3.3 1.25-3.3 3.4v5.02h-2.38l.18 1.43h2.2v3.41l1.76.38V8.27h3.94l-.18-1.43h-3.76v-5C-1.98.7-1.3 0 0 0" style="fill:#000;fill-opacity:1;fill-rule:nonzero;stroke:none" transform="matrix(.35278 0 0 -.35278 100 39.8)"/><path d="M0 0v2.73C-3.46 2.13-4.67 1.14-4.67.1c0-.81.64-1.32 1.7-1.32C-1.87-1.21-.77-.8 0 0m1.76 3.94v-6.27H0v1.18a5.17 5.17 0 0 0-3.63-1.4c-1.74 0-2.88.92-2.88 2.37 0 1.94 1.87 3.4 6.51 4.1C-.02 5.32-.7 6-1.91 6c-1.1 0-2.36-.49-3.46-1.41v1.67a6.33 6.33 0 0 0 3.74 1.25c2.22 0 3.39-1.18 3.39-3.58" style="fill:#000;fill-opacity:1;fill-rule:nonzero;stroke:none" transform="matrix(.35278 0 0 -.35278 103.48 39.46)"/><path d="m0 0-8.63 7.06V.37h-1.76V14.9h1.76V7.86l7.02 7.04H.64L-6.7 7.6l7.75-6.29Z" style="fill:#000;fill-opacity:1;fill-rule:nonzero;stroke:none" transform="matrix(.35278 0 0 -.35278 110.59 40.42)"/><path d="M0 0c0 2.16-1.47 3.7-3.48 3.7C-5.32 3.7-6.7 2.3-6.7.35c0-2.13 1.45-3.72 3.45-3.72C-1.39-3.37 0-1.94 0 0m-8.56.07c0 2.99 2.25 5.14 5.28 5.14 2.95 0 5.1-2.06 5.1-4.92 0-3-2.22-5.15-5.27-5.15-2.93 0-5.11 2.09-5.11 4.93" style="fill:#000;fill-opacity:1;fill-rule:nonzero;stroke:none" transform="matrix(.35278 0 0 -.35278 114.23 38.65)"/><path d="M0 0v-6.34h-1.76v6.19C-1.76 1.17-2.36 2-3.4 2-4.69 2-5.8.75-6.58-.9v-5.44h-1.76v6.19c0 1.32-.6 2.15-1.6 2.15-1.3 0-2.43-1.25-3.2-2.9v-5.44h-1.76V3.3h1.76V1.06c.9 1.5 2.25 2.44 3.7 2.44 1.58 0 2.55-.93 2.8-2.6.9 1.59 2.28 2.6 3.76 2.6C-1.03 3.5 0 2.22 0 0" style="fill:#000;fill-opacity:1;fill-rule:nonzero;stroke:none" transform="matrix(.35278 0 0 -.35278 121.04 38.05)"/><path d="M0 0h5.72c-.15 1.65-1.3 2.93-2.88 2.93C1.32 2.93.14 1.73 0 0m7.48-1.19H.04A3.38 3.38 0 0 1 3.6-4.14c.9 0 1.82.27 2.75.77v-1.38a6.19 6.19 0 0 0-3.28-.88c-2.88 0-4.84 2.02-4.84 4.88 0 2.97 2.04 5.2 4.8 5.2 2.96 0 4.66-2.43 4.46-5.64" style="fill:#000;fill-opacity:1;fill-rule:nonzero;stroke:none" transform="matrix(.35278 0 0 -.35278 122.54 38.38)"/><path d="M0 0v-6.34h-1.76v6.19c0 1.32-.6 2.15-1.6 2.15C-4.67 2-5.8.75-6.57-.9v-5.44h-1.76V3.3h1.76V1.06c.9 1.5 2.25 2.44 3.7 2.44C-1.01 3.5 0 2.22 0 0" style="fill:#000;fill-opacity:1;fill-rule:nonzero;stroke:none" transform="matrix(.35278 0 0 -.35278 128.94 38.05)"/><path d="M0 0a5.1 5.1 0 0 1 3.1-1.08C4.33-1.08 5-.62 5 0 5 1.94.03 1.47.03 4.62c0 1.7 1.59 2.9 3.81 2.9.88 0 1.72-.15 2.46-.48v-1.7c-.72.45-1.73.71-2.77.71-1.1 0-1.74-.55-1.74-1.19 0-1.82 4.96-1.56 4.96-4.7 0-1.6-1.63-2.71-3.88-2.71-1.14 0-2.13.26-2.88.74z" style="fill:#000;fill-opacity:1;fill-rule:nonzero;stroke:none" transform="matrix(.35278 0 0 -.35278 129.87 39.46)"/><path d="m0 0-5.17 4.8V.35h-1.76v14.52h1.76V5.6l4.07 4.4H.94l-4.3-4.64 4.61-4.23Z" style="fill:#000;fill-opacity:1;fill-rule:nonzero;stroke:none" transform="matrix(.35278 0 0 -.35278 135.66 40.41)"/><path d="M0 0h-1.1L.33 3.52h1.94zm-3.48-5.59h5.72C2.1-3.94.95-2.66-.63-2.66c-1.52 0-2.7-1.2-2.84-2.93M4-6.78h-7.43A3.38 3.38 0 0 1 .1-9.73c.9 0 1.83.27 2.75.78v-1.4a6.19 6.19 0 0 0-3.28-.87c-2.88 0-4.84 2.02-4.84 4.88 0 2.97 2.05 5.2 4.8 5.2C2.5-1.14 4.2-3.56 4-6.78" style="fill:#000;fill-opacity:1;fill-rule:nonzero;stroke:none" transform="matrix(.35278 0 0 -.35278 138.22 36.4)"/><path d="M0 0v-6.34h-1.76v6.19c0 1.32-.6 2.15-1.6 2.15C-4.67 2-5.8.75-6.57-.9v-5.44h-1.76V8.2h1.76V1.06c.9 1.5 2.25 2.44 3.7 2.44C-1.01 3.5 0 2.22 0 0" style="fill:#000;fill-opacity:1;fill-rule:nonzero;stroke:none" transform="matrix(.35278 0 0 -.35278 143.4 38.05)"/><path d="M0 0c0 2.16-1.47 3.7-3.48 3.7C-5.32 3.7-6.7 2.3-6.7.35c0-2.13 1.45-3.72 3.45-3.72C-1.39-3.37 0-1.94 0 0m-8.56.07c0 2.99 2.25 5.14 5.28 5.14 2.95 0 5.1-2.06 5.1-4.92 0-3-2.22-5.15-5.27-5.15-2.93 0-5.11 2.09-5.11 4.93" style="fill:#000;fill-opacity:1;fill-rule:nonzero;stroke:none" transform="matrix(.35278 0 0 -.35278 147.29 38.65)"/><path d="m0 0-5.1-9.64h-.88L-11.11 0h2.02l3.57-7 3.58 7Z" style="fill:#000;fill-opacity:1;fill-rule:nonzero;stroke:none" transform="matrix(.35278 0 0 -.35278 74.29 44.65)"/><path d="M0 0c0 1.58-1.3 2.6-3.28 2.6H-6v-5.07h3.06C-1.19-2.47 0-1.5 0 0m-6 9.06V4h2.22C-2.05 4-.95 5-.95 6.51c0 1.57-1.18 2.56-3.05 2.56zM1.84.04c0-2.44-2-4-5.08-4h-4.54v14.52h3.87c2.93 0 4.8-1.45 4.8-3.72C.9 5.32.1 4.16-1.3 3.61.66 3.12 1.85 1.85 1.85.04" style="fill:#000;fill-opacity:1;fill-rule:nonzero;stroke:none" transform="matrix(.35278 0 0 -.35278 79.34 46.65)"/><path d="M0 0v-1.87c-1.21.2-2.88-.44-4.33-3.3V-9.7H-6.1v9.63h1.76V-3.5C-3.13-.53-1.56.22 0 0" style="fill:#000;fill-opacity:1;fill-rule:nonzero;stroke:none" transform="matrix(.35278 0 0 -.35278 82.96 44.62)"/><path d="M0 0v2.73C-3.45 2.13-4.66 1.14-4.66.1c0-.81.63-1.32 1.69-1.32C-1.87-1.21-.77-.8 0 0m1.76 3.94v-6.27H0v1.18a5.16 5.16 0 0 0-3.63-1.4c-1.74 0-2.88.92-2.88 2.37 0 1.94 1.87 3.4 6.51 4.1C-.02 5.32-.7 6-1.91 6c-1.1 0-2.36-.49-3.46-1.41v1.67a6.32 6.32 0 0 0 3.74 1.25c2.22 0 3.4-1.18 3.4-3.58" style="fill:#000;fill-opacity:1;fill-rule:nonzero;stroke:none" transform="matrix(.35278 0 0 -.35278 85.55 47.22)"/><path d="M0 0c.75 0 1.36.15 1.94.42v-1.45a4.8 4.8 0 0 0-2.38-.55c-2.38 0-3.3 1.25-3.3 3.4v5.02h-2.38l.18 1.43h2.2v3.41l1.76.38V8.27h3.94l-.18-1.43h-3.76v-5C-1.98.7-1.3 0 0 0" style="fill:#000;fill-opacity:1;fill-rule:nonzero;stroke:none" transform="matrix(.35278 0 0 -.35278 88.75 47.57)"/><path d="M44.83 169.48h.62v3.4h-.62zm-.11-1.26c0-.25.2-.45.45-.45s.44.2.44.45c0 .24-.2.44-.44.44a.45.45 0 0 1-.45-.44" style="fill:#000;fill-opacity:1;fill-rule:nonzero;stroke:none;stroke-width:.352778" transform="translate(45.4 -124.83)"/><path d="M0 0a5.1 5.1 0 0 1 3.1-1.08C4.34-1.08 5-.62 5 0 5 1.94.04 1.47.04 4.62c0 1.7 1.59 2.9 3.81 2.9.88 0 1.72-.15 2.47-.48v-1.7c-.73.45-1.74.71-2.78.71-1.1 0-1.74-.55-1.74-1.19 0-1.82 4.96-1.56 4.96-4.7 0-1.6-1.63-2.71-3.88-2.71-1.14 0-2.13.26-2.88.75z" style="fill:#000;fill-opacity:1;fill-rule:nonzero;stroke:none" transform="matrix(.35278 0 0 -.35278 91.82 47.22)"/><path d="M0 0v11.86h1.76V-.04c0-.84.46-1.35 1.45-1.35.35 0 .66.07.95.18v-1.4c-.4-.19-.86-.27-1.39-.27C.75-2.88 0-1.83 0 0" style="fill:#000;fill-opacity:1;fill-rule:nonzero;stroke:none" transform="matrix(.35278 0 0 -.35278 95.13 47.1)"/><path d="M0 0v2.73C-3.46 2.13-4.67 1.14-4.67.1c0-.81.64-1.32 1.7-1.32C-1.87-1.21-.77-.8 0 0m1.76 3.94v-6.27H0v1.18a5.17 5.17 0 0 0-3.63-1.4c-1.74 0-2.88.92-2.88 2.37 0 1.94 1.87 3.4 6.51 4.1C-.02 5.32-.7 6-1.91 6c-1.1 0-2.36-.49-3.46-1.41v1.67a6.33 6.33 0 0 0 3.74 1.25c2.22 0 3.39-1.18 3.39-3.58" style="fill:#000;fill-opacity:1;fill-rule:nonzero;stroke:none" transform="matrix(.35278 0 0 -.35278 99.3 47.22)"/><path d="m0 0-5.1-9.64h-.88L-11.11 0h2.02l3.57-7 3.58 7Z" style="fill:#000;fill-opacity:1;fill-rule:nonzero;stroke:none" transform="matrix(.35278 0 0 -.35278 104.2 44.65)"/><path d="M0 0h5.72c-.15 1.65-1.3 2.93-2.88 2.93C1.32 2.93.14 1.73 0 0m7.48-1.19H.04A3.38 3.38 0 0 1 3.6-4.14c.9 0 1.82.27 2.75.77v-1.38a6.19 6.19 0 0 0-3.28-.88c-2.88 0-4.84 2.02-4.84 4.88 0 2.97 2.04 5.2 4.8 5.2 2.96 0 4.66-2.43 4.46-5.64" style="fill:#000;fill-opacity:1;fill-rule:nonzero;stroke:none" transform="matrix(.35278 0 0 -.35278 105.03 46.14)"/><path d="M0 0a82.16 82.16 0 0 1-58.47-24.22A82.15 82.15 0 0 1-82.7-82.7c0-22.1 8.6-42.86 24.22-58.48A82.16 82.16 0 0 1 0-165.39c22.09 0 42.86 8.6 58.48 24.22A82.15 82.15 0 0 1 82.7-82.69c0 22.08-8.6 42.85-24.22 58.47A82.16 82.16 0 0 1 0 0m0-167.62a84.37 84.37 0 0 0-60.05 24.87 84.38 84.38 0 0 0-24.88 60.06 84.37 84.37 0 0 0 24.88 60.05A84.37 84.37 0 0 0 0 2.24a84.37 84.37 0 0 0 60.05-24.88A84.37 84.37 0 0 0 84.94-82.7a84.38 84.38 0 0 0-24.88-60.06A84.37 84.37 0 0 0 0-167.62" style="fill:#000;fill-opacity:1;fill-rule:nonzero;stroke:none" transform="matrix(.35278 0 0 -.35278 29.96 .79)"/><path d="M0 0a71.74 71.74 0 0 1-51.06-21.15 71.74 71.74 0 0 1-21.16-51.07 71.74 71.74 0 0 1 21.16-51.06A71.74 71.74 0 0 1 0-144.44c19.3 0 37.43 7.52 51.07 21.16a71.74 71.74 0 0 1 21.15 51.06 71.74 71.74 0 0 1-21.15 51.07A71.74 71.74 0 0 1 0 0m0-146.67a73.96 73.96 0 0 0-52.65 21.8 73.97 73.97 0 0 0-21.8 52.65 73.97 73.97 0 0 0 21.8 52.65A73.97 73.97 0 0 0 0 2.23a73.96 73.96 0 0 0 52.65-21.8 73.96 73.96 0 0 0 21.8-52.65 73.96 73.96 0 0 0-21.8-52.64A73.96 73.96 0 0 0 0-146.67" style="fill:#000;fill-opacity:1;fill-rule:nonzero;stroke:none" transform="matrix(.35278 0 0 -.35278 29.96 4.48)"/><path d="M0 0c-6.99 0-12.46 12.46-12.46 28.36C-12.46 44.26-7 56.7 0 56.7c6.99 0 12.46-12.45 12.46-28.35 0-7.3-1.17-14.2-3.3-19.45a1.12 1.12 0 1 0-2.07.85c2.02 4.98 3.14 11.59 3.14 18.6 0 15.62-5.29 26.12-10.23 26.12s-10.23-10.5-10.23-26.12c0-15.63 5.3-26.13 10.23-26.13 1.97 0 3.58 1.6 4.6 2.95a1.12 1.12 0 0 0 1.78-1.34C4.5 1.33 2.28 0 0 0" style="fill:#000;fill-opacity:1;fill-rule:nonzero;stroke:none" transform="matrix(.35278 0 0 -.35278 29.96 26.66)"/><path d="M0 0c-1.15 0-2.4.1-3.72.27-5.83.8-12.71 3.29-19.37 7-10.39 5.77-18.13 13.37-19.74 19.36-.54 2.03-.37 3.8.5 5.27 1.2 1.99 3.62 3.18 7 3.45a1.12 1.12 0 1 0 .18-2.23c-1.84-.14-4.24-.68-5.25-2.37-.56-.93-.65-2.12-.27-3.55 1.44-5.35 8.94-12.57 18.67-17.99C-7.92 1.38 4.19.54 6.66 4.66c.55.93.64 2.12.26 3.54-1.43 5.35-8.93 12.58-18.66 18-6.3 3.5-12.8 5.87-18.3 6.68a1.12 1.12 0 0 0 .32 2.21c5.77-.85 12.53-3.31 19.06-6.94C-.27 22.37 7.48 14.77 9.08 8.78c.54-2.03.37-3.8-.5-5.27C7.18 1.21 4.2.01 0 0" style="fill:#000;fill-opacity:1;fill-rule:nonzero;stroke:none" transform="matrix(.35278 0 0 -.35278 35.91 22.9)"/><path d="M0 0c-4.2 0-7.2 1.2-8.57 3.51-.88 1.47-1.05 3.24-.5 5.27 1.6 5.99 9.34 13.59 19.73 19.37 6.55 3.64 13.33 6.1 19.1 6.95a1.12 1.12 0 1 0 .33-2.22c-5.51-.8-12.03-3.18-18.35-6.69C2.01 20.78-5.49 13.55-6.92 8.2c-.38-1.42-.3-2.61.26-3.54.95-1.59 3.33-2.44 6.7-2.44 5.38 0 13.3 2.18 21.96 7 9.73 5.4 17.24 12.63 18.67 17.98.38 1.43.29 2.62-.27 3.55-1 1.68-3.37 2.21-5.18 2.36a1.12 1.12 0 0 0 .19 2.23c3.34-.28 5.73-1.47 6.91-3.44.88-1.47 1.05-3.24.5-5.28-1.6-5.98-9.34-13.58-19.73-19.36C16.43 3.56 9.55 1.08 3.72.27A27.5 27.5 0 0 0 0 0" style="fill:#000;fill-opacity:1;fill-rule:nonzero;stroke:none" transform="matrix(.35278 0 0 -.35278 24 22.9)"/><path d="M0 0a3.08 3.08 0 1 1 0-6.15A3.08 3.08 0 0 1 0 0m0-8.38A5.31 5.31 0 1 0 .01 2.25 5.31 5.31 0 0 0 0-8.38" style="fill:#000;fill-opacity:1;fill-rule:nonzero;stroke:none" transform="matrix(.35278 0 0 -.35278 29.96 15.57)"/><path d="M0 0c-.4 0-.81-.15-1.12-.45a1.41 1.41 0 0 1 0-2.04c.62-.6 1.62-.6 2.24 0a1.41 1.41 0 0 1 0 2.04C.82-.15.41 0 0 0m0-5.17c-.97 0-1.94.36-2.67 1.07a3.63 3.63 0 0 0 0 5.26 3.89 3.89 0 0 0 5.34 0 3.64 3.64 0 0 0 0-5.26A3.84 3.84 0 0 0 0-5.17" style="fill:#000;fill-opacity:1;fill-rule:nonzero;stroke:none" transform="matrix(.35278 0 0 -.35278 35.51 10.32)"/><path d="M0 0c-.43 0-.87-.16-1.2-.48a1.52 1.52 0 0 1 0-2.2 1.75 1.75 0 0 1 2.4 0c.3.3.48.7.48 1.1 0 .42-.17.8-.48 1.1C.87-.16.44 0 0 0m0-5.38c-1 0-2 .36-2.75 1.1a3.73 3.73 0 0 0 0 5.41 4 4 0 0 0 5.5 0 3.73 3.73 0 0 0 0-5.41A3.95 3.95 0 0 0 0-5.38" style="fill:#000;fill-opacity:1;fill-rule:nonzero;stroke:none" transform="matrix(.35278 0 0 -.35278 32.43 23.7)"/><path d="M0 0c-.4 0-.81-.15-1.12-.45a1.42 1.42 0 0 1-.44-1.02c0-.38.15-.75.44-1.02.62-.6 1.62-.6 2.24 0a1.41 1.41 0 0 1 0 2.04C.82-.15.41 0 0 0m0-5.17c-.97 0-1.94.36-2.67 1.07a3.63 3.63 0 0 0 0 5.26 3.89 3.89 0 0 0 5.34 0 3.63 3.63 0 0 0 0-5.26A3.84 3.84 0 0 0 0-5.17" style="fill:#000;fill-opacity:1;fill-rule:nonzero;stroke:none" transform="matrix(.35278 0 0 -.35278 24.42 10.32)"/><path d="M0 0a4.33 4.33 0 0 1-4.36-4.36A4.36 4.36 0 1 1 0 0m0-10.95A6.6 6.6 0 0 0 0 2.23a6.6 6.6 0 0 0 0-13.18" style="fill:#000;fill-opacity:1;fill-rule:nonzero;stroke:none" transform="matrix(.35278 0 0 -.35278 26.01 37.2)"/><path d="M0 0h-23.85a1.12 1.12 0 1 0 0 2.23H0A1.12 1.12 0 1 0 0 0" style="fill:#000;fill-opacity:1;fill-rule:nonzero;stroke:none" transform="matrix(.35278 0 0 -.35278 34.43 39.13)"/><path d="M0 0a1.12 1.12 0 0 0-.13 2.23l27.96 3.2a1.12 1.12 0 0 0 .25-2.21L.13 0 0 0" style="fill:#000;fill-opacity:1;fill-rule:nonzero;stroke:none" transform="matrix(.35278 0 0 -.35278 26.01 37.2)"/><path d="M0 0h-.13l-27.62 3.2a1.12 1.12 0 0 0 .25 2.21L.13 2.23A1.12 1.12 0 0 0 0 0" style="fill:#000;fill-opacity:1;fill-rule:nonzero;stroke:none" transform="matrix(.35278 0 0 -.35278 35.76 42.18)"/><path d="M0 0a1.12 1.12 0 0 0-.95 1.7c8.03 12.98 21.68 20.72 36.5 20.72s28.46-7.73 36.48-20.67a1.12 1.12 0 0 0-1.9-1.18C62.53 12.85 49.6 20.18 35.57 20.18c-14.06 0-27-7.34-34.6-19.65A1.12 1.12 0 0 0 0 0" style="fill:#000;fill-opacity:1;fill-rule:nonzero;stroke:none" transform="matrix(.35278 0 0 -.35278 17.44 53)"/><path d="M0 0c-.07 0-.15 0-.22.02-.6.12-1 .71-.88 1.32C2.23 18.1 10.36 28.93 19.63 28.93c9.26 0 17.4-10.82 20.72-27.57a1.12 1.12 0 1 0-2.19-.43c-3.06 15.4-10.5 25.76-18.53 25.76C11.61 26.7 4.16 16.33 1.1.9 1 .37.52 0 0 0" style="fill:#000;fill-opacity:1;fill-rule:nonzero;stroke:none" transform="matrix(.35278 0 0 -.35278 23.05 55.3)"/><path d="M0 0c-.62 0-1.12.5-1.12 1.12v29.33a1.12 1.12 0 0 0 2.24 0V1.12C1.12.5.62 0 0 0" style="fill:#000;fill-opacity:1;fill-rule:nonzero;stroke:none" transform="matrix(.35278 0 0 -.35278 29.98 56.23)"/><path d="M0 0c-1.01 0-2.44.6-3.5 3.51-.6 1.68-1.22 2.05-1.39 2.05-.17 0-.79-.37-1.4-2.04V3.5C-7.34.61-8.77 0-9.78 0c-1.01 0-2.44.6-3.5 3.51-.6 1.68-1.22 2.05-1.39 2.05-.17 0-.79-.37-1.39-2.04l-.01-.03C-17.12.61-18.54 0-19.56 0c-1 0-2.44.6-3.49 3.51l-.02.05c-.6 1.66-1.21 2.03-1.38 2.03-.17 0-.79-.37-1.4-2.01a1.12 1.12 0 1 0-2.09.76c1.06 2.88 2.48 3.5 3.49 3.48 1.01 0 2.43-.6 3.48-3.5l.02-.04c.6-1.67 1.22-2.05 1.4-2.05.16 0 .78.38 1.39 2.04v.03c1.05 2.89 2.48 3.5 3.5 3.5 1 0 2.43-.61 3.49-3.52.6-1.67 1.22-2.05 1.4-2.05.16 0 .78.38 1.38 2.04l.01.03c1.05 2.89 2.48 3.5 3.5 3.5 1 0 2.43-.61 3.48-3.52C-.79 2.61-.17 2.23 0 2.23c.17 0 .79.38 1.4 2.04a1.12 1.12 0 0 0 2.1-.75C2.44.6 1 0 0 0" style="fill:#000;fill-opacity:1;fill-rule:nonzero;stroke:none" transform="matrix(.35278 0 0 -.35278 16.58 30.97)"/><path d="M0 0a1.12 1.12 0 0 0-.43 2.15l6.7 2.8a1.12 1.12 0 0 0 .87-2.07L.42.08A1.1 1.1 0 0 0 0 0" style="fill:#000;fill-opacity:1;fill-rule:nonzero;stroke:none" transform="matrix(.35278 0 0 -.35278 46.24 30.85)"/><path d="M0 0a1.11 1.11 0 0 0-1.1 1.26l1.06 8.38a3.5 3.5 0 0 0 3.41 3.02c.93 0 1.77-.4 2.32-1.1a1.12 1.12 0 1 0-1.77-1.38.67.67 0 0 1-.55.25c-.56 0-1.12-.5-1.2-1.07L1.11.98A1.12 1.12 0 0 0 0 0" style="fill:#000;fill-opacity:1;fill-rule:nonzero;stroke:none" transform="matrix(.35278 0 0 -.35278 47.42 30.36)"/><path d="M0 0c-.93 0-1.77.4-2.31 1.1A1.12 1.12 0 0 0-.55 2.49.67.67 0 0 1 0 2.23c.56 0 1.13.5 1.2 1.07l1.07 8.39a1.12 1.12 0 1 0 2.21-.29L3.41 3.02A3.5 3.5 0 0 0 0 0" style="fill:#000;fill-opacity:1;fill-rule:nonzero;stroke:none" transform="matrix(.35278 0 0 -.35278 46.23 34.03)"/><path d="M0 0a1.11 1.11 0 0 0-1.1 1.26l1.06 8.38a3.5 3.5 0 0 0 3.41 3.02 1.12 1.12 0 1 0 0-2.23c-.56 0-1.12-.5-1.2-1.07L1.11.98A1.12 1.12 0 0 0 0 0" style="fill:#000;fill-opacity:1;fill-rule:nonzero;stroke:none" transform="matrix(.35278 0 0 -.35278 50.87 30.36)"/><path d="M0 0a1.12 1.12 0 1 0 0 2.23c.56 0 1.13.5 1.2 1.07l1.07 8.39a1.12 1.12 0 1 0 2.21-.29L3.41 3.02A3.5 3.5 0 0 0 0 0" style="fill:#000;fill-opacity:1;fill-rule:nonzero;stroke:none" transform="matrix(.35278 0 0 -.35278 49.68 34.03)"/><path d="M0 0c-.48 0-.93.32-1.07.81A60.3 60.3 0 0 1-22.3 31.84 59.3 59.3 0 0 1-58.6 44.1a59.3 59.3 0 0 1-36.32-12.27A60.3 60.3 0 0 1-116.14.8a1.12 1.12 0 1 0-2.14.62 62.53 62.53 0 0 0 22 32.18A61.51 61.51 0 0 0-58.6 46.35 61.5 61.5 0 0 0-20.93 33.6a62.53 62.53 0 0 0 22-32.18A1.12 1.12 0 0 0 0 0" style="fill:#000;fill-opacity:1;fill-rule:nonzero;stroke:none" transform="matrix(.35278 0 0 -.35278 50.64 45.92)"/><path d="M0 0a61.51 61.51 0 0 0-37.67 12.73 62.54 62.54 0 0 0-22.01 32.19 1.12 1.12 0 1 0 2.15.62A60.28 60.28 0 0 1-36.32 14.5 59.3 59.3 0 0 1 0 2.23a59.3 59.3 0 0 1 36.31 12.28 60.28 60.28 0 0 1 21.22 31.02 1.12 1.12 0 0 0 2.15-.61 62.55 62.55 0 0 0-22-32.19A61.51 61.51 0 0 0 0 0" style="fill:#000;fill-opacity:1;fill-rule:nonzero;stroke:none" transform="matrix(.35278 0 0 -.35278 29.96 30.36)"/><path d="M0 0c-.51 0-.98.36-1.1.88-3.13 14.37-9.86 27.3-18.93 36.4-9.3 9.35-20.41 14.3-32.13 14.3-11.71 0-22.82-4.95-32.13-14.3-9.07-9.1-15.8-22.04-18.93-36.4a1.12 1.12 0 1 0-2.19.48c3.23 14.77 10.17 28.1 19.54 37.5 9.73 9.78 21.4 14.95 33.71 14.95 12.32 0 23.98-5.17 33.72-14.95 9.37-9.4 16.3-22.73 19.53-37.5A1.12 1.12 0 0 0 0 0" style="fill:#000;fill-opacity:1;fill-rule:nonzero;stroke:none" transform="matrix(.35278 0 0 -.35278 48.36 48.55)"/><path d="M0 0c-12.32 0-23.98 5.17-33.72 14.95-9.36 9.4-16.3 22.72-19.53 37.5a1.12 1.12 0 1 0 2.18.48c3.14-14.37 9.87-27.3 18.94-36.4C-22.83 7.17-11.71 2.22 0 2.22s22.82 4.95 32.13 14.3c9.07 9.1 15.8 22.03 18.94 36.4a1.12 1.12 0 0 0 2.18-.48c-3.23-14.78-10.17-28.1-19.53-37.5C23.98 5.17 12.32 0 0 0" style="fill:#000;fill-opacity:1;fill-rule:nonzero;stroke:none" transform="matrix(.35278 0 0 -.35278 29.96 30.36)"/></svg>