<svg xmlns="http://www.w3.org/2000/svg" preserveAspectRatio="none" width="110" height="64" xml:space="preserve"><path fill-rule="evenodd" clip-rule="evenodd" fill="#505154" d="m38.12 63.02-3.17-8.92a57.63 57.63 0 0 1 2.25-2.59l15.2-3.8a71.52 71.52 0 0 0-14.28 15.31zM7.11 61.94 1.8 51.12A200.5 200.5 0 0 1 52.85 38.6l1.85 7.3A194.32 194.32 0 0 0 7.11 61.95zm5.76-56.3a5.12 5.12 0 0 0-3.85-1.47l-2.15.05c-.06.98-.1 4.5-.1 10.58v1.22c.5.23 1.32.34 2.49.34 1.59 0 2.9-.48 3.94-1.46a5.23 5.23 0 0 0 1.67-4c0-2.27-.67-4.03-2-5.26zm2.63-2.05c1.92 1.36 2.88 3.51 2.88 6.44 0 2.4-.93 4.4-2.79 5.99a9.95 9.95 0 0 1-6.72 2.34c-.65 0-1.35-.08-2.1-.24.07 5.36.18 8.74.34 10.14H2.83V17.72c.06-4.41.06-7.5 0-9.25-.07-2.96-.42-4.83-1.03-5.6l.24-.7 7.56-.24c2.4 0 4.37.55 5.9 1.66zm50.07 2.34-4 11.31h7.84l-3.84-11.3zM32.32 24.75c.94-1.4 1.41-3.2 1.41-5.41 0-2.6-.58-4.78-1.76-6.54-.93-1.44-2.03-2.29-3.3-2.54a3.74 3.74 0 0 0-1.72.26c-2.42 1.11-3.62 3.32-3.6 6.63 0 2.73.53 5.02 1.6 6.87.83 1.41 1.8 2.28 2.92 2.62.35.1.71.16 1.09.16 1.33 0 2.45-.69 3.36-2.05zm2.77-14.14c1.7 1.79 2.54 4.28 2.54 7.46 0 2.93-.9 5.41-2.72 7.46a8.9 8.9 0 0 1-7.03 3.21h-.01c-5.16-.16-7.96-3.47-8.42-9.94 0-3.05.92-5.59 2.77-7.6a9.02 9.02 0 0 1 7.03-3.03c2.37 0 4.32.82 5.84 2.44zm15.32-1.95c.55.17 1.2.45 1.94.87.16.6.21 1.26.15 2-.1.92-.36 1.59-.78 2L51 13.4c-.72-2.2-2.18-3.31-4.39-3.31-1.73.3-2.85 1.12-3.36 2.48 0 .94.54 1.77 1.6 2.48.43.27 1.62.85 3.56 1.76 3.42 1.6 5.13 3.58 5.13 5.95 0 1.75-.65 3.2-1.95 4.34a7.85 7.85 0 0 1-5.17 1.65c-1.53 0-2.9-.4-4.1-1.21-1.26-.81-1.9-1.76-1.9-2.83 0-.5.13-.96.4-1.42.15.75.85 1.47 2.09 2.15a7.35 7.35 0 0 0 3.56 1.03c1.04 0 1.9-.22 2.58-.64a2.4 2.4 0 0 0 1.22-2.2c0-.9-1.66-2.19-4.98-3.85-3.31-1.62-4.97-3.56-4.97-5.8 0-1.59.63-2.95 1.9-4.1a6.76 6.76 0 0 1 4.69-1.7c1.36 0 2.53.17 3.5.5zm58.11 37.54v2.59a173.8 173.8 0 0 0-67.77 13.15l11.51-12.52a176.58 176.58 0 0 1 56.26-3.22zM68.5 1.25c.2.94.52 2.08.98 3.41l6.97 20.43c.32 1.17.78 2.23 1.37 3.17h-4.78c-.06-.55-.16-1-.3-1.36l-2.62-7.76h-9.22l-3.12 9.12h-2.92l9.01-23.6c.42-1.37 1.15-2.29 2.2-2.77a8.98 8.98 0 0 1 2.43-.64zm34.82 6.92c1.32 0 2.46.5 3.4 1.47a4.7 4.7 0 0 1 1.32 3.21c.04.59.04 2.95 0 7.07 0 4.2.15 6.97.44 8.34h-3.9a9.72 9.72 0 0 1-.1-1.9l.1-9.5c.03-1.96-.18-3.36-.64-4.2-.49-.88-1.35-1.33-2.58-1.37-2.05 0-3.82.75-5.31 2.24-.16 7.84-.04 12.75.38 14.73h-3.84a9.72 9.72 0 0 1-.1-1.9l.1-9.5c.03-1.96-.18-3.36-.64-4.2-.49-.88-1.35-1.33-2.59-1.37-2.2 0-4.07.9-5.6 2.68 0 4.75.03 8.52.1 11.31 0 1.08.11 2.07.34 2.98h-4l.2-13.51c.03-1.91-.31-3.3-1.03-4.14l-1.02-.68v-.69a6.55 6.55 0 0 1 3.56-1.02c.84 0 1.43.33 1.76.98.22.52.3 1.31.24 2.39l-.2 1.06a9.47 9.47 0 0 1 2.79-2.97c1.46-1 3.06-1.5 4.82-1.5a4.4 4.4 0 0 1 3.17 1.26 4.71 4.71 0 0 1 1.5 2.88c1.9-2.77 4.33-4.15 7.33-4.15z"/></svg>