<svg id="a1ab0e55-6704-4100-a8c9-84a99ecd50f1" data-name="Layer 1" xmlns="http://www.w3.org/2000/svg" viewBox="0 0 969.32 252.65"><defs><style>.a72206d6-06d7-4dae-8d48-d65e1306e04b{fill:#2b3089;}</style></defs><g id="e2273c7c-2cb4-426f-a770-97570b433b87" data-name="Group 1"><path id="be04cbd3-7ee5-4ea3-be10-1607c74d33aa" data-name="Path 130" class="a72206d6-06d7-4dae-8d48-d65e1306e04b" d="M344.42,77.63c-4.33-1.79-8.85-3.8-13.19-5.81-4.53-2.23-6.87-4.86-7.14-7.91a10.81,10.81,0,0,1,2.61-7.51A8.42,8.42,0,0,1,333,53.78a9.36,9.36,0,0,1,6,2.31,10.67,10.67,0,0,1,3.17,6.65h16.89a25.22,25.22,0,0,0-16-23.22,32.69,32.69,0,0,0-9.84-1.79A27.86,27.86,0,0,0,320.25,41a23.66,23.66,0,0,0-9.59,9.07,24.16,24.16,0,0,0-3.52,13,26.53,26.53,0,0,0,5.94,16.24,42.84,42.84,0,0,0,15.59,9.83c7.06,2.83,11.49,5.06,13.5,6a7.05,7.05,0,0,1,3.07,6.66,13.34,13.34,0,0,1-1.06,4.74,10.47,10.47,0,0,1-4.62,5.6,15.17,15.17,0,0,1-7.49,2.42A10.38,10.38,0,0,1,325,111.7a13,13,0,0,1-3.52-8.22H304A26.7,26.7,0,0,0,308,117.41,28.54,28.54,0,0,0,318.68,127a29.39,29.39,0,0,0,28.08,0,26.74,26.74,0,0,0,10.54-10,30.25,30.25,0,0,0,4-16.15,23.06,23.06,0,0,0-5.41-15.09,32.42,32.42,0,0,0-11.52-8.12" transform="translate(-15.6 -9.33)"/><path id="a9840512-8898-4408-87ec-5b4f974fb5c0" data-name="Path 131" class="a72206d6-06d7-4dae-8d48-d65e1306e04b" d="M395.32,39.42h-16.9v88.66h43.82V112H395.32Z" transform="translate(-15.6 -9.33)"/><path id="f157e69a-b2e5-4d7c-b5f8-7226585d2175" data-name="Path 132" class="a72206d6-06d7-4dae-8d48-d65e1306e04b" d="M437.13,115.19a43,43,0,0,0,14.34,11,46.62,46.62,0,0,0,20,4.43H472a42.43,42.43,0,0,0,25.64-7.6,47.68,47.68,0,0,0,15.52-17.52,46.41,46.41,0,0,0,5.56-18.14c0-.22.13-.76.13-1.39V84.81A46.11,46.11,0,0,0,515.33,67a48.28,48.28,0,0,0-24.92-25.43,43.59,43.59,0,0,0-17.85-3.79c-.22,0-.42.11-.61.11a45.31,45.31,0,0,0-21.63,5.6,44.26,44.26,0,0,0-17.54,16.14,48.78,48.78,0,0,0-6.86,25.86,46.58,46.58,0,0,0,2.83,15.09,45,45,0,0,0,8.4,14.66m7.9-44.11a28.56,28.56,0,0,1,7.49-9.71,42.81,42.81,0,0,1,10.13-5.81A37.72,37.72,0,0,1,472,53.89c.4,0,.83-.11,1.26-.11a30.52,30.52,0,0,1,15.19,4.86,27.17,27.17,0,0,1,10,11.19,30.78,30.78,0,0,1,3.47,14.45,31.36,31.36,0,0,1-4.39,15.42,30.2,30.2,0,0,1-11.08,11A29,29,0,0,1,472,114.58h-.43a26.49,26.49,0,0,1-9.29-2,29.42,29.42,0,0,1-9.71-5.9,33,33,0,0,1-7.4-9.3A29.42,29.42,0,0,1,442,84.83,32.56,32.56,0,0,1,445,71.11" transform="translate(-15.6 -9.33)"/><path id="e19c8fa4-8872-4b78-97a2-c25f24fde893" data-name="Path 133" class="a72206d6-06d7-4dae-8d48-d65e1306e04b" d="M602.81,39.42H585.62L561.87,107,538,39.42H521l34,88.66h13.72Z" transform="translate(-15.6 -9.33)"/><path id="a3e51d74-f4d1-45f3-98ec-869d6f84d207" data-name="Path 134" class="a72206d6-06d7-4dae-8d48-d65e1306e04b" d="M664.78,112H633.53V91.77H663.6V75.83H633.53V55.36H665.1V39.43H616.64v88.65h48.14Z" transform="translate(-15.6 -9.33)"/><path id="b33f61ff-4945-41b6-9805-80be3191d1ed" data-name="Path 135" class="a72206d6-06d7-4dae-8d48-d65e1306e04b" d="M705.63,63.37l37,64.7h18.67V39.41H744.37v65.23L708,39.41H688.74v88.66h16.89Z" transform="translate(-15.6 -9.33)"/><path id="f36555d6-f989-4c78-b378-2fd284b9c75e" data-name="Path 136" class="a72206d6-06d7-4dae-8d48-d65e1306e04b" d="M820.79,77.63c-4.36-1.79-8.87-3.8-13.19-5.81-4.58-2.23-6.89-4.86-7.15-7.91A10.68,10.68,0,0,1,803,56.4a8.56,8.56,0,0,1,6.39-2.62,9.44,9.44,0,0,1,6,2.31,10.87,10.87,0,0,1,3.14,6.65h16.88A25.73,25.73,0,0,0,829.75,47a26.18,26.18,0,0,0-10.32-7.5,32.82,32.82,0,0,0-9.82-1.79,28.22,28.22,0,0,0-13,3.27,24.14,24.14,0,0,0-9.6,9.07,24.64,24.64,0,0,0-3.5,13,26.85,26.85,0,0,0,5.93,16.24,43.37,43.37,0,0,0,15.65,9.83c7,2.83,11.48,5.06,13.5,6a7,7,0,0,1,3.08,6.66,14.32,14.32,0,0,1-1.06,4.74,10.81,10.81,0,0,1-4.63,5.6,15.25,15.25,0,0,1-7.54,2.42,10.51,10.51,0,0,1-7.07-2.85,13.33,13.33,0,0,1-3.48-8.22H780.37a26.8,26.8,0,0,0,4,13.93A28.49,28.49,0,0,0,795.05,127a29.33,29.33,0,0,0,28.05,0,26.88,26.88,0,0,0,10.57-10,30.24,30.24,0,0,0,4-16.15,23,23,0,0,0-5.34-15.09,32.6,32.6,0,0,0-11.52-8.12" transform="translate(-15.6 -9.33)"/><path id="a2528fea-f7c4-4329-88cf-00c549ea2b46" data-name="Path 137" class="a72206d6-06d7-4dae-8d48-d65e1306e04b" d="M902.93,39.42,875.14,78.15V39.42H858.26v88.66h16.88V89.14l27.79,38.94h19.7L889.1,83l33.53-43.58Z" transform="translate(-15.6 -9.33)"/><path id="fd16785f-166a-4a1a-9513-6c7a122e7cf1" data-name="Path 138" class="a72206d6-06d7-4dae-8d48-d65e1306e04b" d="M984.92,55.36V39.43H936.46v88.66h48.13v-16H953.35V91.78h30.12V75.85H953.35V55.36Z" transform="translate(-15.6 -9.33)"/><path id="a26a0025-7a17-45a1-aa98-53771a0ae15d" data-name="Path 139" class="a72206d6-06d7-4dae-8d48-d65e1306e04b" d="M978.57,19.78,973.1,9.33l-23.24,13.3,5.42,9.4Z" transform="translate(-15.6 -9.33)"/><path id="b5ebd84f-1569-4662-b26c-95ca21a97e19" data-name="Path 140" class="a72206d6-06d7-4dae-8d48-d65e1306e04b" d="M309.31,256.32h46.74V241.13h-30.7V221h29.54V205.66H325.35V185.48h30.92V170.2h-47Z" transform="translate(-15.6 -9.33)"/><path id="f3f005bd-94b4-488a-9482-4316d68dad25" data-name="Path 141" class="a72206d6-06d7-4dae-8d48-d65e1306e04b" d="M388.59,170.2H372.5v86.13h43.05V241.15h-27Z" transform="translate(-15.6 -9.33)"/><path id="bc4a7ca3-0961-4fbf-bb1f-8fa5e86d73a9" data-name="Path 142" class="a72206d6-06d7-4dae-8d48-d65e1306e04b" d="M427.3,256.32h46.76V241.13H443.35V221h29.53V205.66H443.35V185.48h30.9V170.2H427.3Z" transform="translate(-15.6 -9.33)"/><path id="be43c406-b4e6-4247-963f-31c7ed6205b1" data-name="Path 143" class="a72206d6-06d7-4dae-8d48-d65e1306e04b" d="M535,170.2l-27.31,37.26V170.2H491.68v86.13h16.05V218.22L535,256.33h19.42l-32.91-43.68,32.91-42.45Z" transform="translate(-15.6 -9.33)"/><path id="fcbfbff5-6d7e-4f02-82d5-2808abc55777" data-name="Path 144" class="a72206d6-06d7-4dae-8d48-d65e1306e04b" d="M557.45,185.48h15.61l.32,70.83h16V185.48H605.5V170.2H557.33Z" transform="translate(-15.6 -9.33)"/><path id="b7bb3716-2a57-4de7-84e0-e7d72a15547b" data-name="Path 145" class="a72206d6-06d7-4dae-8d48-d65e1306e04b" d="M666.58,218.43a27.57,27.57,0,0,0,9.49-20.28,30.92,30.92,0,0,0-4.44-15.72,24.7,24.7,0,0,0-10.94-9.2,41.7,41.7,0,0,0-13.53-2.95c-.87,0-1.7-.1-2.52-.1h-26v86.13h16V222.84l12.44,18.58,10,14.89h20l-23.68-31.66a28.18,28.18,0,0,0,13.11-6.24m-21.88-7.48H634.4l.07-25.46H643a30.11,30.11,0,0,1,4.13.32,20.44,20.44,0,0,1,8.14,2.43,10,10,0,0,1,4.71,9c0,8.12-4.39,12.79-12.85,13.59a18.41,18.41,0,0,1-2.46.11" transform="translate(-15.6 -9.33)"/><path id="e4443f58-f8cb-45a3-825c-497f9581b049" data-name="Path 146" class="a72206d6-06d7-4dae-8d48-d65e1306e04b" d="M723.79,170.18h-6.24l-36.19,86.13h17.5l9.71-22.68h31L749,256.31h17.64L730,170.18Zm0,48.24H714.6l9.19-26.17v.11l9.28,26.06Z" transform="translate(-15.6 -9.33)"/><path id="ada2725a-619d-4aa8-b462-9a3992d4ed7d" data-name="Path 147" class="a72206d6-06d7-4dae-8d48-d65e1306e04b" d="M723.8,148.54l-8,4.65,5.19,9.29,2.85-1.5,19.72-10.52L738.12,140Z" transform="translate(-15.6 -9.33)"/><path id="b4694096-97fb-468d-a894-dca6da3f1186" data-name="Path 148" class="a72206d6-06d7-4dae-8d48-d65e1306e04b" d="M823.53,218.43A27.48,27.48,0,0,0,833,198.15a31.43,31.43,0,0,0-4.42-15.72,24.55,24.55,0,0,0-11-9.2,41.12,41.12,0,0,0-13.45-2.95c-.89,0-1.72-.1-2.59-.1h-26v86.13h16.07V222.84l12.5,18.58,10,14.89h20l-23.66-31.66a28.31,28.31,0,0,0,13.09-6.24m-21.85-7.48H791.35l.08-25.46H800a30.57,30.57,0,0,1,4.17.32,20,20,0,0,1,8.08,2.43,9.9,9.9,0,0,1,4.73,9c0,8.12-4.42,12.79-12.81,13.59a18.64,18.64,0,0,1-2.48.11" transform="translate(-15.6 -9.33)"/><path id="fcc12fe7-b4f8-4492-bbb1-e00118e25e13" data-name="Path 149" class="a72206d6-06d7-4dae-8d48-d65e1306e04b" d="M902.15,233.64,865.64,170.2H847.29v86.13h16.05V193l37,63.31h17.85V170.2H902.17Z" transform="translate(-15.6 -9.33)"/><path id="ab21516b-60eb-45cd-ab23-f55a8b6c4b45" data-name="Path 150" class="a72206d6-06d7-4dae-8d48-d65e1306e04b" d="M937.44,256.32h46.72V241.13H953.48V221H983V205.66H953.48V185.48h30.93V170.2h-47Z" transform="translate(-15.6 -9.33)"/><path id="a8e0215b-7e0e-4195-8dca-1536be1aa049" data-name="Path 151" class="a72206d6-06d7-4dae-8d48-d65e1306e04b" d="M112.91,28A115.82,115.82,0,0,0,18.79,72.63,106.81,106.81,0,0,1,90.65,38.87,105.41,105.41,0,0,1,201.37,138.5a91.5,91.5,0,0,1-.89,18.27L17.82,149.48,173.7,129.64a78.72,78.72,0,1,0-73.33,92.89,79.64,79.64,0,0,0,65.33-41.59,15.54,15.54,0,0,0,.71-1.49l29,1.38c-14.21,38-50.63,67.76-93.59,68.39A109.4,109.4,0,0,1,15.6,212.08,117,117,0,1,0,112.89,28" transform="translate(-15.6 -9.33)"/></g></svg>
