<svg width="161" height="24" xmlns="http://www.w3.org/2000/svg"><g fill="none" fill-rule="evenodd"><path d="m13.54 18.09-3.72-6.5c-.6 1.22-1.06 2.98-1.07 5.6l3.2 5.58c.17.3.5.5.85.5h1.48c.35 0 .67-.2.84-.5l7-12.22a.35.35 0 0 0-.29-.52h-3.26c-.26 0-.5.14-.62.37l-4.41 7.69Z" fill="#20323F"/><path d="M28.17 0C20.85 12.77 7.62 0 7.62 15.22L.2 2.27A1.52 1.52 0 0 1 1.5 0h26.67Z" fill="#E72076"/><path d="M32.28 19.59c.7-.66 1.04-1.62 1.04-2.87s-.36-2.23-1.06-2.94a3.53 3.53 0 0 0-2.59-1.06c-1 0-1.85.34-2.53 1.04a3.97 3.97 0 0 0-1.02 2.88c0 1.24.35 2.2 1.03 2.9.7.69 1.55 1.04 2.57 1.04 1 0 1.86-.34 2.56-1Zm4.09-9.56c.32 0 .48.16.48.48v12.27c0 .32-.16.48-.48.48h-2.45c-.23 0-.4-.16-.48-.48l-.2-1.62a5.42 5.42 0 0 1-4.48 2.41c-1.7 0-3.14-.63-4.33-1.88-1.2-1.25-1.8-2.93-1.8-5.05 0-2.12.6-3.8 1.81-5.06a5.7 5.7 0 0 1 4.25-1.88c1.76 0 3.3.75 4.58 2.26l.17-1.45c.05-.32.21-.48.48-.48h2.45ZM41.23 21.54a6.9 6.9 0 0 1-1.89-4.92c0-1.92.64-3.56 1.9-4.9a6.38 6.38 0 0 1 4.86-2c1.07 0 2.05.21 2.95.63.9.44 1.6.98 2.13 1.66.21.26.18.49-.1.68l-1.63 1.24c-.23.16-.45.14-.65-.07a3.57 3.57 0 0 0-2.6-1.14c-1.04 0-1.87.37-2.52 1.12a4.12 4.12 0 0 0-.97 2.8c0 1.13.32 2.06.97 2.8.65.74 1.5 1.11 2.55 1.11a4.1 4.1 0 0 0 1.55-.33c.25-.1.57-.32.68-.42l.25-.21.19-.15c.23-.19.47-.21.67-.05l1.61 1.16c.24.19.29.41.13.66a5.45 5.45 0 0 1-2.18 1.67c-.94.44-1.96.67-3.06.67a6.37 6.37 0 0 1-4.84-2M65.9 10.03c.32 0 .48.16.48.48v12.27c0 .32-.16.48-.48.48h-2.54c-.27 0-.43-.16-.48-.48l-.17-1.29a5.92 5.92 0 0 1-4.58 2.08c-3.16 0-4.86-2.23-4.86-6.33V10.5c0-.32.16-.48.48-.48h2.74c.32 0 .48.16.48.48v6.73c0 1.89.98 3 2.67 3 1.73 0 2.93-1.22 3.04-3.8v-5.93c0-.32.16-.48.48-.48h2.74ZM82.1 10.03c.31 0 .47.16.47.48v12.27c0 .32-.16.48-.48.48h-2.54c-.27 0-.43-.16-.48-.48l-.17-1.29a5.92 5.92 0 0 1-4.58 2.08c-3.16 0-4.85-2.23-4.85-6.33V10.5c0-.32.16-.48.47-.48h2.74c.32 0 .48.16.48.48v6.73c0 1.89.99 3 2.67 3 1.73 0 2.93-1.22 3.04-3.8v-5.93c0-.32.16-.48.48-.48h2.74ZM107.02 11.4c.92 1.13 1.37 2.68 1.37 4.63v6.75c0 .32-.15.48-.47.48h-2.74c-.32 0-.48-.16-.48-.48v-6.75c0-1.89-.97-2.98-2.64-2.98-1.78 0-2.98 1.2-3.07 3.78v5.95c0 .32-.16.48-.48.48h-2.67c-.32 0-.48-.16-.48-.48v-6.75c0-1.89-.98-2.98-2.66-2.98-1.78 0-2.98 1.2-3.07 3.78v5.95c0 .32-.16.48-.48.48H86.4c-.32 0-.48-.16-.48-.48V10.51c0-.32.16-.48.48-.48h2.57c.23 0 .39.16.47.48l.15 1.27a5.48 5.48 0 0 1 4.3-2.06 4.5 4.5 0 0 1 4.39 2.75 5.71 5.71 0 0 1 4.95-2.75c1.6 0 2.86.56 3.78 1.69M111.96 23.26c-.22 0-.33-.1-.32-.33V5.19c0-.22.11-.33.32-.33h1.8c.22 0 .33.11.31.33v17.74c0 .22-.1.33-.32.33h-1.79ZM127.2 20.3a4.37 4.37 0 0 0 1.3-3.35c0-1.44-.43-2.62-1.33-3.56-.9-.93-2-1.4-3.32-1.4-1.26 0-2.32.44-3.17 1.32a4.82 4.82 0 0 0-1.27 3.47 4.7 4.7 0 0 0 1.29 3.44 4.36 4.36 0 0 0 3.25 1.32c1.28 0 2.36-.4 3.24-1.24Zm3.3-10.05c.22 0 .33.12.32.34v12.34c0 .22-.11.33-.32.33h-1.41c-.16 0-.27-.1-.34-.33l-.17-1.9a6.14 6.14 0 0 1-5.13 2.54 6.13 6.13 0 0 1-4.58-1.9 6.7 6.7 0 0 1-1.86-4.9 6.8 6.8 0 0 1 1.86-4.94 6.04 6.04 0 0 1 4.5-1.9c2.12 0 4 .98 5.21 2.61l.17-1.95c.04-.22.15-.34.34-.34h1.4ZM144.82 20.22a4.7 4.7 0 0 0 1.3-3.44c0-1.43-.44-2.58-1.28-3.47a4.27 4.27 0 0 0-3.19-1.32 4.4 4.4 0 0 0-3.3 1.4 4.97 4.97 0 0 0-1.35 3.56c0 1.42.44 2.54 1.33 3.35a4.51 4.51 0 0 0 3.23 1.24 4.4 4.4 0 0 0 3.26-1.32m1.83-8.4a6.83 6.83 0 0 1 1.85 4.96 6.7 6.7 0 0 1-1.85 4.9 6.17 6.17 0 0 1-4.59 1.9c-2.21 0-3.95-.91-5.23-2.7l-.2 2.05c-.05.22-.16.33-.33.33h-1.41c-.22 0-.34-.1-.32-.33V5.19c0-.22.1-.33.32-.33h1.79c.22 0 .33.11.32.33v7.26a6.26 6.26 0 0 1 5.13-2.52c1.78 0 3.28.63 4.52 1.9M152.66 23a4.86 4.86 0 0 1-2.05-1.46c-.15-.15-.16-.3-.02-.48l.65-1c.13-.2.3-.21.5-.04.82 1.01 2.13 1.52 3.93 1.52 1.96 0 2.93-.68 2.91-2.03 0-.68-.2-1.09-.86-1.4a7.94 7.94 0 0 0-.92-.34c-.28-.08-.73-.18-1.36-.31-.73-.15-1.3-.3-1.76-.44a7.6 7.6 0 0 1-1.42-.6 2.78 2.78 0 0 1-1.53-2.64c0-1.17.46-2.11 1.38-2.8a5.8 5.8 0 0 1 3.61-1.05c1.73 0 3.27.55 4.63 1.65.21.11.24.27.08.48l-.67.94c-.1.19-.27.22-.46.1a5.4 5.4 0 0 0-3.46-1.11c-1.87 0-2.8.57-2.8 1.72 0 .38.14.7.43.96s.6.45.95.55a11.96 11.96 0 0 0 1.7.4c1.57.32 2.75.75 3.56 1.3.8.55 1.2 1.4 1.2 2.57 0 1.24-.45 2.23-1.35 2.97-.9.74-2.17 1.11-3.8 1.11a7.7 7.7 0 0 1-3.07-.57" fill="#20323F"/></g></svg>